<svg width="20" height="20" viewBox="0 0 20 20" fill="none" xmlns="http://www.w3.org/2000/svg">
<path d="M7.2 5.2C7.2 5.43734 7.12962 5.66934 6.99776 5.86668C6.86591 6.06402 6.67849 6.21783 6.45922 6.30866C6.23995 6.39948 5.99867 6.42324 5.76589 6.37694C5.53311 6.33064 5.31929 6.21635 5.15147 6.04853C4.98365 5.88071 4.86936 5.66689 4.82306 5.43411C4.77676 5.20133 4.80052 4.96005 4.89134 4.74078C4.98217 4.52151 5.13598 4.33409 5.33332 4.20224C5.53065 4.07038 5.76266 4 6 4C6.31826 4 6.62348 4.12643 6.84853 4.35147C7.07357 4.57652 7.2 4.88174 7.2 5.2ZM20 1.6V18.4C20 18.8243 19.8314 19.2313 19.5314 19.5314C19.2313 19.8314 18.8243 20 18.4 20H1.6C1.17565 20 0.768687 19.8314 0.468629 19.5314C0.168571 19.2313 0 18.8243 0 18.4V1.6C0 1.17565 0.168571 0.768687 0.468629 0.468629C0.768687 0.168571 1.17565 0 1.6 0H18.4C18.8243 0 19.2313 0.168571 19.5314 0.468629C19.8314 0.768687 20 1.17565 20 1.6ZM18.4 18.4V1.6H1.6V18.4H18.4ZM6 7.6C5.78783 7.6 5.58434 7.68429 5.43431 7.83431C5.28429 7.98434 5.2 8.18783 5.2 8.4V14.8C5.2 15.0122 5.28429 15.2157 5.43431 15.3657C5.58434 15.5157 5.78783 15.6 6 15.6C6.21217 15.6 6.41566 15.5157 6.56568 15.3657C6.71571 15.2157 6.8 15.0122 6.8 14.8V8.4C6.8 8.18783 6.71571 7.98434 6.56568 7.83431C6.41566 7.68429 6.21217 7.6 6 7.6ZM12 7.6C11.2798 7.59996 10.5762 7.81593 9.98 8.22C9.93626 8.02804 9.82326 7.85895 9.66264 7.74509C9.50202 7.63124 9.30506 7.58061 9.10944 7.60289C8.91383 7.62518 8.7333 7.71881 8.60241 7.86588C8.47151 8.01295 8.39945 8.20312 8.4 8.4V14.8C8.4 15.0122 8.48429 15.2157 8.63431 15.3657C8.78434 15.5157 8.98783 15.6 9.2 15.6C9.41217 15.6 9.61566 15.5157 9.76568 15.3657C9.91571 15.2157 10 15.0122 10 14.8V11.2C10 10.6696 10.2107 10.1609 10.5858 9.78579C10.9609 9.41071 11.4696 9.2 12 9.2C12.5304 9.2 13.0391 9.41071 13.4142 9.78579C13.7893 10.1609 14 10.6696 14 11.2V14.8C14 15.0122 14.0843 15.2157 14.2343 15.3657C14.3843 15.5157 14.5878 15.6 14.8 15.6C15.0122 15.6 15.2157 15.5157 15.3657 15.3657C15.5157 15.2157 15.6 15.0122 15.6 14.8V11.2C15.6 10.2452 15.2207 9.32955 14.5456 8.65442C13.8705 7.97928 12.9548 7.6 12 7.6Z" fill="#3A312C"/>
</svg>
