<svg width="30" height="20" viewBox="0 0 30 20" fill="none" xmlns="http://www.w3.org/2000/svg">
<path fill-rule="evenodd" clip-rule="evenodd" d="M0 1.66667C0 1.22464 0.225765 0.800716 0.627628 0.488156C1.02949 0.175595 1.57454 0 2.14286 0H27.8571C28.4255 0 28.9705 0.175595 29.3724 0.488156C29.7742 0.800716 30 1.22464 30 1.66667C30 2.10869 29.7742 2.53262 29.3724 2.84518C28.9705 3.15774 28.4255 3.33333 27.8571 3.33333H2.14286C1.57454 3.33333 1.02949 3.15774 0.627628 2.84518C0.225765 2.53262 0 2.10869 0 1.66667ZM0 10C0 9.55797 0.225765 9.13405 0.627628 8.82149C1.02949 8.50893 1.57454 8.33333 2.14286 8.33333H27.8571C28.4255 8.33333 28.9705 8.50893 29.3724 8.82149C29.7742 9.13405 30 9.55797 30 10C30 10.442 29.7742 10.866 29.3724 11.1785C28.9705 11.4911 28.4255 11.6667 27.8571 11.6667H2.14286C1.57454 11.6667 1.02949 11.4911 0.627628 11.1785C0.225765 10.866 0 10.442 0 10ZM12.8571 18.3333C12.8571 17.8913 13.0829 17.4674 13.4848 17.1548C13.8866 16.8423 14.4317 16.6667 15 16.6667H27.8571C28.4255 16.6667 28.9705 16.8423 29.3724 17.1548C29.7742 17.4674 30 17.8913 30 18.3333C30 18.7754 29.7742 19.1993 29.3724 19.5118C28.9705 19.8244 28.4255 20 27.8571 20H15C14.4317 20 13.8866 19.8244 13.4848 19.5118C13.0829 19.1993 12.8571 18.7754 12.8571 18.3333Z" fill="#333333"/>
</svg>
