<svg width="45" height="30" viewBox="0 0 45 30" fill="none" xmlns="http://www.w3.org/2000/svg">
<path fill-rule="evenodd" clip-rule="evenodd" d="M0 2.5C0 1.83696 0.338647 1.20107 0.941442 0.732234C1.54424 0.263393 2.3618 0 3.21429 0H41.7857C42.6382 0 43.4558 0.263393 44.0586 0.732234C44.6614 1.20107 45 1.83696 45 2.5C45 3.16304 44.6614 3.79893 44.0586 4.26777C43.4558 4.73661 42.6382 5 41.7857 5H3.21429C2.3618 5 1.54424 4.73661 0.941442 4.26777C0.338647 3.79893 0 3.16304 0 2.5ZM0 15C0 14.337 0.338647 13.7011 0.941442 13.2322C1.54424 12.7634 2.3618 12.5 3.21429 12.5H41.7857C42.6382 12.5 43.4558 12.7634 44.0586 13.2322C44.6614 13.7011 45 14.337 45 15C45 15.663 44.6614 16.2989 44.0586 16.7678C43.4558 17.2366 42.6382 17.5 41.7857 17.5H3.21429C2.3618 17.5 1.54424 17.2366 0.941442 16.7678C0.338647 16.2989 0 15.663 0 15ZM19.2857 27.5C19.2857 26.837 19.6244 26.2011 20.2272 25.7322C20.83 25.2634 21.6475 25 22.5 25H41.7857C42.6382 25 43.4558 25.2634 44.0586 25.7322C44.6614 26.2011 45 26.837 45 27.5C45 28.163 44.6614 28.7989 44.0586 29.2678C43.4558 29.7366 42.6382 30 41.7857 30H22.5C21.6475 30 20.83 29.7366 20.2272 29.2678C19.6244 28.7989 19.2857 28.163 19.2857 27.5Z" fill="#333333"/>
</svg>
