<svg width="24" height="30" viewBox="0 0 24 30" fill="none" xmlns="http://www.w3.org/2000/svg">
<path d="M12 15C12.825 15 13.5315 14.706 14.1195 14.118C14.7065 13.531 15 12.825 15 12C15 11.175 14.7065 10.4685 14.1195 9.8805C13.5315 9.2935 12.825 9 12 9C11.175 9 10.469 9.2935 9.882 9.8805C9.294 10.4685 9 11.175 9 12C9 12.825 9.294 13.531 9.882 14.118C10.469 14.706 11.175 15 12 15ZM12 26.025C15.05 23.225 17.3125 20.681 18.7875 18.393C20.2625 16.106 21 14.075 21 12.3C21 9.575 20.131 7.3435 18.393 5.6055C16.656 3.8685 14.525 3 12 3C9.475 3 7.3435 3.8685 5.6055 5.6055C3.8685 7.3435 3 9.575 3 12.3C3 14.075 3.7375 16.106 5.2125 18.393C6.6875 20.681 8.95 23.225 12 26.025ZM12 30C7.975 26.575 4.969 23.3935 2.982 20.4555C0.994 17.5185 0 14.8 0 12.3C0 8.55 1.2065 5.5625 3.6195 3.3375C6.0315 1.1125 8.825 0 12 0C15.175 0 17.9685 1.1125 20.3805 3.3375C22.7935 5.5625 24 8.55 24 12.3C24 14.8 23.0065 17.5185 21.0195 20.4555C19.0315 23.3935 16.025 26.575 12 30Z" fill="#374249"/>
</svg>
