<svg width="9" height="330" viewBox="0 0 9 330" fill="none" xmlns="http://www.w3.org/2000/svg">
<path d="M4.5 0.333333C3.02724 0.333333 1.83333 1.52724 1.83333 3C1.83333 4.47276 3.02724 5.66667 4.5 5.66667C5.97276 5.66667 7.16667 4.47276 7.16667 3C7.16667 1.52724 5.97276 0.333333 4.5 0.333333ZM4.14643 329.354C4.34169 329.549 4.65828 329.549 4.85354 329.354L8.03552 326.172C8.23078 325.976 8.23078 325.66 8.03552 325.464C7.84026 325.269 7.52368 325.269 7.32841 325.464L4.49999 328.293L1.67156 325.464C1.4763 325.269 1.15971 325.269 0.964452 325.464C0.76919 325.66 0.76919 325.976 0.964452 326.172L4.14643 329.354ZM4 3L3.99999 329L4.99999 329L5 3L4 3Z" fill="#005280"/>
</svg>
