<svg width="1550" height="346" viewBox="0 0 1550 346" fill="none" xmlns="http://www.w3.org/2000/svg">
<path d="M0 187.971L1.29934 186.233L1.33203 178.433L2.20936 177.72V175.58H1.49491L1.16977 175.313L2.24205 174.957L2.30684 173.753H3.57348V174.823H7.89412L7.86142 173.307H11.7921V171.525H14.7159V170.588H15.853V167.424H17.575V166.176H27.7753V169.385C27.7753 169.385 30.2444 169.564 30.2444 169.385C30.2444 169.207 30.2444 170.277 30.2444 170.277H34.045V173.263H35.7669L37.1637 177.677V183.471H39.0807V178.702H40.0228V175.492H48.0144V173.754H49.4439V175.805H53.2771V178.212H54.6091V179.817H56.4286V177.276H58.9298V143.89H56.6236V141.84H55.6814V137.694H59.1247V133.727H59.8719V132.033H61.6259L64.9718 134.217H70.9169V131.721H72.3464V134.172H91.4805V132.434H93.7867V133.906H98.0746V136.847L96.808 138.943H94.5017V158.11H112.271L112.953 159.046H115.228V158.11H116.917V156.059H114.545L114.935 153.92H116.462V151.602H113.376V149.151H116.462V146.343H113.116V145.986H115.065V138.32H118.963V137.161H120.75V138.141H136.148V137.111H138.617V138.403H140.892V145.446H144.108V146.471H147.161V145.134H152.522V137.422H154.049V136.085H155.186V133.812H153.496V133.099H154.763V127.527H151.417L148.169 126.546H154.764V111.971H169.642L172.63 99.8466H173.54L172.857 114.779H178.705V109.252H185.202L202.745 122.491V135.997H205.863V133.1H204.174V127.305H205.994L206.936 125.745H216.291V123.739H222.951V121.956H228.799L230.358 122.982V125.166H238.804V126.815H247.153V136.086H251.051C251.051 136.086 253.455 128.91 258.327 127.261C263.2 125.612 285.29 119.148 285.29 119.148V151.375H286.622V143.174H295.682L294.286 19.1679H329.338L329.89 156.68L334.535 157.036V164.659H332.715V166.798H334.177V168.536H332.845V170.408H334.047V172.057H332.358V173.706H333.852C333.852 173.706 333.9 175.868 333.852 175.801C333.803 175.735 332.682 175.801 332.682 175.801V178.654H333.949V180.036H331.675V182.443H334.468V184.092H332.649V185.563H334.436V187.569H335.247V194.434H336.482L336.417 110.767H339.991V109.43L353.927 105.998V103.947H379.753V105.329L393.234 109.742V110.722H397.457C397.457 110.722 397.392 141.256 397.457 141.256C397.522 141.256 399.439 141.256 399.439 141.256C399.439 141.256 399.211 139.562 399.439 139.562C399.666 139.562 405.189 139.562 405.189 139.562V6.73022H435.563V6.26248H437.853C437.853 6.26248 438.601 5.32618 437.918 5.32618C437.236 5.32618 437.236 5.32618 437.236 5.32618L437.203 3.2758C437.203 3.2758 438.373 3.34226 438.34 3.2758C438.308 3.20933 438.34 2.02795 437.544 2.02795C436.748 2.02795 435.238 2.02795 435.238 2.02795V3.61061H432.655V0H435.189V0.846573H436.976C436.976 0.846573 437.057 0.0440321 438.259 0.0440321C439.461 0.0440321 439.737 0.0440321 439.737 0.0440321V0.556628H447.663V1.51536H449.141V2.25061H446.348V1.47049H440.013V2.3395H438.925V3.36469H439.997V5.12513H438.974V6.28408H441.589V6.9969H463.923V116.339L473.1 114.957V93.9846H492.348V92.4244H503.231V94.0511H533.053V112.148H549.588V110.655H554.591V109.362H557.287L558.351 110.822H565.018V110.209H566.139V109.585H565.343V109.095H566.578V107.245H557.855V107.691H552.024V107.112H554.867V105.886H570.687V99.0216H569.647V98.1078H568.396V96.2801H570.345V95.0322L569.16 94.4972H570.427V92.9594H572.376V94.2521H573.09V94.9649H571.888V95.9677H571.239V97.1931C571.239 97.1931 572.993 97.0593 572.993 97.1931C572.993 97.3268 572.993 99.1546 572.993 99.1546H571.693V105.752H572.619C572.619 105.752 572.7 107.87 572.619 107.87C572.538 107.87 569.842 107.691 569.842 107.87C569.842 108.048 569.842 109.942 569.842 109.942H572.245L573.561 111.904H590.454L589.966 176.158H591.883V171.567H611.017V169.472H616.556V159.576L612.349 155.163H609.962V152.377L607.834 149.747V146.225L605.479 143.417V139.473H610.336L615.111 136.71V130.268H619.724C619.724 130.268 619.757 128.129 619.724 128.173C619.691 128.218 622.242 128.173 622.242 128.173V126.88H623.59V119.637H622.112V117.943H623.314V109.764H622.014V108.092H623.297V101.941H622.307V100.269H623.233V90.2626C623.233 90.2626 624.418 89.9727 624.418 90.2626C624.418 90.5526 624.418 100.403 624.418 100.403H625.474V102.075H624.402V108.181H625.701V109.875H624.304V118.033H625.425V119.638H624.255V126.279H625.49V124.607H627.163V127.126H631.386V130.179H632.961V136.665L634.991 137.534L637.152 133.388H643.113L651.543 153.893H669.799L669.751 86.4959H690.103V82.8852H680.065V81.1248H681.835V81.7712H692.832V82.4175H695.918V84.1339H694.456V83.2201H691.744L691.297 83.8332V86.4967H696.877V89.0148L705.859 82.9301L706.622 96.904L714.557 95.3554L706.712 97.6625L706.858 101.541L714.24 101.909L706.931 102.343L707.102 106.02L714.313 106.053L707.151 106.655C707.151 106.655 707.127 109.597 707.248 109.63C707.37 109.663 714.265 109.964 714.265 109.964L707.321 110.466L707.662 113.776L714.192 114.01L707.735 114.512C707.735 114.512 707.857 117.721 707.93 117.721C708.003 117.721 713.997 117.888 713.997 117.888C713.997 117.888 707.979 118.289 707.979 118.39C707.979 118.49 708.101 121.533 708.101 121.533L713.509 121.733L708.271 122.235L708.49 125.344L713.924 125.845L708.685 125.979L708.928 129.122L713.143 129.523L708.904 129.958L709.025 133.067L713.07 133.702L709.147 134.003L709.366 137.279L712.972 137.313L709.366 137.78L709.61 140.856L712.753 141.29L709.659 141.457L709.464 143.43L711.096 143.664L711.267 144.934H712.412L709.342 145.503V148.244L710.658 148.411L712.022 149.447L709.171 149.347V152.723H711.827V153.526H709.122V156.535H711.339V157.27H708.903V160.145H711.266V161.115H708.83V162.486H712.289V163.488H715.262C715.262 163.488 716.699 161.315 715.797 158.373C714.896 155.431 715.408 154.194 715.408 154.194H722.059C722.059 154.194 723.009 156.167 722.571 157.871L721.84 158.573C721.84 158.573 721.109 161.983 721.816 162.952H723.862L723.984 154.36H727.322C727.322 154.36 727.346 156.668 728.272 156.701C729.198 156.734 729.953 156.935 729.953 154.494L732.561 154.595C732.561 154.595 732.853 156.333 732.536 156.902H735.046C735.046 156.902 734.437 154.361 735.363 154.395C736.288 154.428 737.946 154.395 737.946 154.395C737.946 154.395 738.335 156.467 737.946 157.236C737.556 158.005 737.97 159.241 737.97 159.241L739.724 159.141C739.724 159.141 739.212 158.004 739.188 157.169C739.164 156.333 739.042 154.628 739.578 154.628C740.114 154.628 742.697 154.628 742.697 154.628C742.697 154.628 743.013 156.032 742.697 157.236C742.38 158.44 742.209 159.175 742.209 159.175L748.008 159.241V152.355H751.248V150.984H753.002V152.087H761.164V158.74H762.602V157.571H766.256L767.499 159.343H768.083V158.741H769.935V159.544H771.226V158.741H772.785V159.577H774.004C774.004 159.577 773.98 158.741 774.004 158.774C774.028 158.808 775.49 158.774 775.49 158.774V179.568H779.705V123.605H799.977V118.456H810.745V121.398H812.694V118.189H827.289V123.705H832.99V100.972H839.471V96.4254H857.817V101.306H862.617V105.552H866.564V107.457H869.244V121.298H871.047V123.805H869.317V125.711H870.681V127.784H869.219V130.157H870.535V131.829H868.756V133.734H870.729V135.406H871.704L870.876 200.329H875.237V197.688H876.967V199.092H878.94V198.089H882.156V184.416H887.127V181.875H892.682V184.282H894.412V104.449H903.914V105.753H906.57V92.8821H910.346V101.006H916.144L917.192 102.109H919.214V104.516H920.652V103.546H923.405V102.577H921.846V101.807H923.356V93.3831H925.305V103.713H932.005V195.414H944.017V178.498H946.501V171.746H944.893V171.278H958.489V165.561L957.38 164.04V162.586H958.903V156.501H992.891V159.945H997.033V167.467H1008.9V173.618H1025.49L1026.93 175.39H1023.76L1023.07 176.343H1016.72V178.7H1020.57V180.038H1016.82V182.578H1024.83L1027.56 184.35V203.139H1033.58V200.631H1031.14V198.423H1033.43V196.751H1031.36V194.645H1033.46V192.873H1031.29V190.767H1033.51V188.828H1031.34V186.956H1033.56V184.817H1031.31V183.012H1033.46V181.24H1031.12V179.2H1033.6V177.161H1031.31V175.59H1033.6V173.282H1031.19V171.243H1033.65V169.538H1031.87V167.332H1033.65V165.392H1031.75V163.521H1033.65V161.548H1031.56V159.776H1033.72V158.038H1031.53V155.832H1033.53V153.96H1031.43V152.322H1033.51V150.316H1031.68V148.377H1033.6V146.539H1031.7V144.433H1033.85V142.66H1031.48V140.822H1033.65V139.017H1031.48V136.977H1033.82V134.937H1031.46V133.099H1033.9V130.926H1031.39V129.188H1033.75V125.711H1031.43V123.27H1032.8V121.532L1033.19 120.997H1034.16V120.161H1031.41V119.125H1032.58V116.918H1033.24V116.083H1030.68V114.913H1035.02V88.8038H1036.82V87.3998H1035.38V86.23H1037.26V84.8924H1038.87V72.7571L1039.61 71.7377L1043.79 70.6178V68.8449H1045.2V70.3163C1045.2 70.3163 1054.6 71.2858 1057.55 74.7626V83.5216H1059.11V85.5944L1059.78 86.5141H1060.67V87.5003H1059.62V88.9043H1061.13V113.242H1062.84V114.412H1069.54V112.54H1070.83V114.312H1073.19V124.943H1078.82V137.111H1082.09V144.9H1084.4V139.986H1086.23V138.916H1087.57V139.986H1088.86V136.175H1090.81L1094.1 126.179V115.983H1095.05V126.179L1098.92 135.974H1101.65V140.254H1102.75V138.95H1103.48V140.288H1105.21V143.965L1106.18 145.302H1111.35V153.961H1116.37V163.723H1121.24V212.331H1118.95V224.433H1123.16V214.571H1127.6V175.791H1129.57V173.184H1133.13V175.123H1134.42V165.896H1137.15V161.082H1139.93V159.61H1141.51V161.047H1144.75H1151.99L1155.76 154.127H1157.23V173.684H1160.76V175.121H1165.51V176.157H1161.64L1163.22 179.4V205.409H1168.85V175.455H1176.84V170.173C1176.84 170.173 1180.27 167.599 1185.71 170.072V174.418H1188.1V178.363H1197.48V180.168H1206.76C1206.76 180.168 1207.78 178.53 1209.88 178.53C1211.97 178.53 1216.94 178.53 1216.94 178.53V179.499H1225.47V186.252H1231.49L1234.53 187.99V199.557H1236.19V197.05H1245.72V200.928H1252.64V203.067H1253.51V204.504H1256.22V201.262H1255.02V199.891H1256.75V198.119H1255.95V197.45H1257V195.812H1256.44V194.776H1259.02C1259.02 194.776 1259.51 188.758 1261.72 188.758C1263.94 188.758 1279.29 188.758 1279.29 188.758V187.087H1285.5V183.744H1292.4V181.838L1294.52 182.707L1294.49 183.275L1293.59 183.342V184.01H1296.44V187.42H1302.65L1304.6 189.259L1310.33 181.168H1313.33L1315.13 179.33V177.458H1322.1V179.063L1331.77 188.223H1334.72V184.646H1337.2L1338.15 179.932H1339.2L1340 175.82L1341.25 175.853L1342.1 179.731H1343.34L1344.88 184.645H1346.48V188.925H1350.53V190.462H1365.05V193.338H1366.46V189.76L1367.07 188.457H1371.31V186.685L1372.77 185.046H1374.55L1375.82 186.784V188.723H1379.89L1380.86 187.386H1383.4V184.678H1384.54V183.943H1390.93V182.974H1394.26V184.579H1398.26L1405.69 196.413H1412.41V197.216C1412.41 197.216 1409.95 197.082 1409.95 197.216C1409.95 197.35 1409.95 198.72 1409.95 198.72H1411.93V199.422V213.062H1420.62V209.919H1426.86V207.914H1434.71V194.709H1445.84V188.891H1443.6V187.788H1445.82V184.144H1442.97V182.038H1446.13V179.899H1442.82V177.592H1446.33V174.784H1442.67V172.978H1446.33V170.671H1442.63V168.498H1446.6V166.225H1442.65V163.483H1446.55V161.511H1442.31V159.438H1446.45V156.931H1442.02V154.524H1446.3V152.251H1442.21V150.011H1446.52V147.671H1442.63V145.866H1446.65V143.626H1442.89V142.356H1451.93V128.653H1453.2V126.881H1484.95V145.87H1492.31V148.344H1492.91V149.38H1493.84V155.197H1497.2V156.601H1500.2L1499.41 157.688H1501.98V158.406H1495.35V161.515H1497.23L1498.05 162.652V164.089H1500.17V166.262H1501.1V167.934H1502.64L1501.42 169.472H1508.41V173.383H1514.84V177.294H1516.45V178.364H1514.84V180.972H1515.91V183.313H1514.82V186.02H1516.26V184.215H1528.32V189.196H1530.65V187.893H1532.29V182.042H1539.99V189.731H1542.3V219.719H1550V346H0.0890037C0.0890037 346 0 186.39 0 187.971Z" fill="black"/>
</svg>
