<svg width="1262" height="511" viewBox="0 0 1262 511" fill="none" xmlns="http://www.w3.org/2000/svg">
<path d="M360.938 35.5828C362.18 35.5828 363.187 34.5417 363.187 33.2575C363.187 31.9733 362.18 30.9323 360.938 30.9323C359.696 30.9323 358.689 31.9733 358.689 33.2575C358.689 34.5417 359.696 35.5828 360.938 35.5828Z" fill="white"/>
<path d="M250.249 248.651C251.491 248.651 252.498 247.609 252.498 246.325C252.498 245.041 251.491 244 250.249 244C249.007 244 248 245.041 248 246.325C248 247.609 249.007 248.651 250.249 248.651Z" fill="white"/>
<path d="M717.283 169.104C718.047 169.104 718.667 168.463 718.667 167.672C718.667 166.882 718.047 166.241 717.283 166.241C716.518 166.241 715.898 166.882 715.898 167.672C715.898 168.463 716.518 169.104 717.283 169.104Z" fill="white"/>
<path d="M1247.85 141.208C1248.25 141.208 1248.57 140.874 1248.57 140.461C1248.57 140.049 1248.25 139.715 1247.85 139.715C1247.45 139.715 1247.12 140.049 1247.12 140.461C1247.12 140.874 1247.45 141.208 1247.85 141.208Z" fill="white"/>
<path d="M253.292 508.555C254.155 508.555 254.855 507.831 254.855 506.939C254.855 506.046 254.155 505.322 253.292 505.322C252.429 505.322 251.729 506.046 251.729 506.939C251.729 507.831 252.429 508.555 253.292 508.555Z" fill="white"/>
<path d="M843.596 371.767C843.933 371.767 844.207 371.484 844.207 371.135C844.207 370.786 843.933 370.503 843.596 370.503C843.258 370.503 842.984 370.786 842.984 371.135C842.984 371.484 843.258 371.767 843.596 371.767Z" fill="white"/>
<path d="M1259.69 61.1579C1260.57 61.1579 1261.29 60.4164 1261.29 59.5017C1261.29 58.587 1260.57 57.8455 1259.69 57.8455C1258.8 57.8455 1258.09 58.587 1258.09 59.5017C1258.09 60.4164 1258.8 61.1579 1259.69 61.1579Z" fill="white"/>
<path d="M1115.6 254.312C1116.49 254.312 1117.2 253.571 1117.2 252.656C1117.2 251.742 1116.49 251 1115.6 251C1114.72 251 1114 251.742 1114 252.656C1114 253.571 1114.72 254.312 1115.6 254.312Z" fill="white"/>
<path d="M888.021 3.49165C888.811 3.49165 889.451 2.82987 889.451 2.01352C889.451 1.19718 888.811 0.5354 888.021 0.5354C887.232 0.5354 886.592 1.19718 886.592 2.01352C886.592 2.82987 887.232 3.49165 888.021 3.49165Z" fill="white"/>
<path d="M945.366 79.1099C945.949 79.1099 946.421 78.6214 946.421 78.0188C946.421 77.4161 945.949 76.9276 945.366 76.9276C944.783 76.9276 944.311 77.4161 944.311 78.0188C944.311 78.6214 944.783 79.1099 945.366 79.1099Z" fill="white"/>
<path d="M125.055 154.182C125.638 154.182 126.111 153.694 126.111 153.091C126.111 152.489 125.638 152 125.055 152C124.473 152 124 152.489 124 153.091C124 153.694 124.473 154.182 125.055 154.182Z" fill="white"/>
<path d="M497.501 257.276C498.307 257.276 498.96 256.6 498.96 255.767C498.96 254.933 498.307 254.257 497.501 254.257C496.695 254.257 496.041 254.933 496.041 255.767C496.041 256.6 496.695 257.276 497.501 257.276Z" fill="white"/>
<path d="M2.28262 465.506C3.10317 465.506 3.76836 464.818 3.76836 463.97C3.76836 463.121 3.10317 462.434 2.28262 462.434C1.46206 462.434 0.796875 463.121 0.796875 463.97C0.796875 464.818 1.46206 465.506 2.28262 465.506Z" fill="white"/>
</svg>
