<svg width="30" height="30" viewBox="0 0 30 30" fill="none" xmlns="http://www.w3.org/2000/svg">
<path d="M10.8 7.8C10.8 8.15601 10.6944 8.50402 10.4966 8.80003C10.2989 9.09603 10.0177 9.32675 9.68883 9.46298C9.35992 9.59922 8.998 9.63487 8.64884 9.56541C8.29967 9.49596 7.97894 9.32453 7.72721 9.07279C7.47547 8.82106 7.30404 8.50033 7.23459 8.15116C7.16513 7.802 7.20078 7.44008 7.33702 7.11117C7.47325 6.78226 7.70397 6.50114 7.99997 6.30335C8.29598 6.10557 8.64399 6 9 6C9.47739 6 9.93523 6.18964 10.2728 6.52721C10.6104 6.86477 10.8 7.32261 10.8 7.8V7.8ZM30 2.4V27.6C30 28.2365 29.7471 28.847 29.2971 29.2971C28.847 29.7471 28.2365 30 27.6 30H2.4C1.76348 30 1.15303 29.7471 0.702944 29.2971C0.252856 28.847 0 28.2365 0 27.6V2.4C0 1.76348 0.252856 1.15303 0.702944 0.702944C1.15303 0.252856 1.76348 0 2.4 0H27.6C28.2365 0 28.847 0.252856 29.2971 0.702944C29.7471 1.15303 30 1.76348 30 2.4ZM27.6 27.6V2.4H2.4V27.6H27.6ZM9 11.4C8.68174 11.4 8.37652 11.5264 8.15147 11.7515C7.92643 11.9765 7.8 12.2817 7.8 12.6V22.2C7.8 22.5183 7.92643 22.8235 8.15147 23.0485C8.37652 23.2736 8.68174 23.4 9 23.4C9.31826 23.4 9.62348 23.2736 9.84853 23.0485C10.0736 22.8235 10.2 22.5183 10.2 22.2V12.6C10.2 12.2817 10.0736 11.9765 9.84853 11.7515C9.62348 11.5264 9.31826 11.4 9 11.4ZM18 11.4C16.9197 11.3999 15.8642 11.7239 14.97 12.33C14.9044 12.0421 14.7349 11.7884 14.494 11.6176C14.253 11.4469 13.9576 11.3709 13.6642 11.4043C13.3707 11.4378 13.0999 11.5782 12.9036 11.7988C12.7073 12.0194 12.5992 12.3047 12.6 12.6V22.2C12.6 22.5183 12.7264 22.8235 12.9515 23.0485C13.1765 23.2736 13.4817 23.4 13.8 23.4C14.1183 23.4 14.4235 23.2736 14.6485 23.0485C14.8736 22.8235 15 22.5183 15 22.2V16.8C15 16.0044 15.3161 15.2413 15.8787 14.6787C16.4413 14.1161 17.2044 13.8 18 13.8C18.7957 13.8 19.5587 14.1161 20.1213 14.6787C20.6839 15.2413 21 16.0044 21 16.8V22.2C21 22.5183 21.1264 22.8235 21.3515 23.0485C21.5765 23.2736 21.8817 23.4 22.2 23.4C22.5183 23.4 22.8235 23.2736 23.0485 23.0485C23.2736 22.8235 23.4 22.5183 23.4 22.2V16.8C23.4 15.3678 22.8311 13.9943 21.8184 12.9816C20.8057 11.9689 19.4322 11.4 18 11.4V11.4Z" fill="#3E5582"/>
</svg>
